<?xml version="1.0" standalone="no"?>
<!DOCTYPE svg PUBLIC "-//W3C//DTD SVG 20010904//EN"
 "http://www.w3.org/TR/2001/REC-SVG-20010904/DTD/svg10.dtd">
<svg version="1.0" xmlns="http://www.w3.org/2000/svg"
 width="398.000000pt" height="302.000000pt" viewBox="0 0 398.000000 302.000000"
 preserveAspectRatio="xMidYMid meet">
<metadata>
Created by potrace 1.15, written by Peter Selinger 2001-2017
</metadata>
<g transform="translate(0.000000,302.000000) scale(0.100000,-0.100000)"
fill="#000000" stroke="none">
<path d="M256 2702 c-27 -52 -24 -73 13 -94 19 -11 43 -17 53 -15 21 6 58 -35
58 -66 0 -15 -5 -18 -25 -15 -33 7 -39 -4 -23 -40 29 -68 239 -209 803 -543
44 -25 118 -70 164 -98 46 -28 120 -62 165 -75 93 -29 163 -70 191 -112 15
-24 18 -43 15 -109 -3 -95 -3 -116 3 -173 6 -56 17 -67 15 -14 -1 23 2 45 5
49 4 3 7 -11 7 -33 0 -64 38 -184 87 -270 54 -97 163 -230 186 -228 9 1 17 -4
17 -10 0 -34 213 -176 300 -200 14 -4 3 7 -28 27 -29 18 -50 35 -48 38 3 3
-27 26 -67 52 -71 46 -207 160 -238 201 -126 168 -197 389 -172 538 11 68 9
85 -6 47 l-10 -24 0 26 c-1 15 6 45 14 68 8 23 12 47 9 55 -3 7 5 31 18 52 14
25 17 35 7 26 -13 -10 -29 -6 -90 22 -64 30 -158 54 -182 48 -37 -10 -70 66
-47 109 11 19 14 20 24 8 12 -15 49 -35 186 -96 46 -21 90 -37 98 -35 7 2 16
-6 19 -17 4 -17 10 -13 39 29 19 27 34 55 34 62 -1 19 -183 119 -238 131 -44
9 -47 8 -69 -19 -24 -30 -31 -18 -12 18 18 33 -1 35 -27 3 l-25 -30 10 28 c20
53 41 85 72 111 17 15 30 28 28 30 -14 12 -663 340 -829 419 -113 54 -213 102
-222 107 -25 14 -44 12 -80 -6 -16 -9 -27 -11 -24 -6 7 11 -44 52 -64 52 -7 0
-26 -10 -43 -22 -23 -17 -29 -18 -25 -6 5 11 0 18 -13 21 -14 4 -23 -2 -33
-21z"/>
<path d="M2560 2133 c-65 -10 -67 -11 -62 -43 4 -25 9 -30 31 -30 124 0 498
-82 469 -103 -8 -5 -3 -6 15 -2 23 4 27 2 25 -11 -2 -12 15 -27 57 -49 33 -17
85 -48 115 -68 30 -21 57 -37 61 -37 4 0 26 -18 50 -40 50 -46 49 -48 -16 -20
-68 29 -74 25 -29 -22 23 -24 51 -59 63 -79 12 -21 32 -44 46 -53 33 -22 79
-104 110 -196 26 -79 43 -217 40 -330 -1 -36 0 -59 2 -52 3 6 9 10 14 6 5 -3
8 -2 7 3 -4 13 26 53 39 53 7 0 21 28 31 62 34 110 9 285 -60 423 -80 158
-281 337 -473 419 -155 67 -183 85 -169 107 4 8 9 7 15 -2 6 -10 11 -11 19 -3
9 9 0 16 -32 28 -23 9 -56 18 -73 19 -27 2 -30 -1 -31 -28 0 -28 -2 -30 -34
-27 -61 6 -83 20 -78 47 3 15 0 26 -9 29 -16 6 -102 6 -143 -1z"/>
<path d="M2925 2121 c11 -5 45 -16 75 -26 76 -24 211 -92 297 -148 174 -115
331 -329 338 -459 2 -31 9 -65 15 -75 7 -11 10 -12 7 -3 -2 8 -1 24 3 35 10
29 27 -53 29 -146 2 -110 -41 -251 -101 -330 -35 -46 -70 -85 -63 -71 14 27
-14 9 -65 -43 -170 -173 -437 -268 -722 -259 -83 3 -128 1 -128 -6 0 -17 52
-24 185 -24 183 -1 310 30 482 115 163 82 313 235 376 384 73 176 66 388 -19
558 -60 118 -182 257 -299 337 -104 72 -344 171 -408 169 -21 0 -21 -1 -2 -8z"/>
<path d="M2730 1975 c-12 -32 -13 -75 -1 -93 9 -15 65 -11 97 6 33 18 49 41
36 54 -6 6 -8 16 -6 23 7 17 -2 21 -63 30 -51 7 -53 6 -63 -20z"/>
<path d="M2908 1816 c-9 -9 -27 -16 -39 -16 -18 0 -20 -3 -11 -12 7 -7 12 -20
12 -31 0 -10 5 -15 10 -12 6 4 10 -6 10 -24 0 -40 14 -46 54 -23 18 11 38 17
43 13 11 -6 37 -61 48 -98 3 -13 10 -23 15 -23 5 0 16 -22 25 -50 9 -27 21
-52 25 -55 5 -3 17 -23 27 -43 9 -20 26 -50 36 -66 19 -27 19 -30 3 -41 -9 -7
-25 -11 -34 -9 -9 2 -26 -3 -37 -12 -20 -15 -20 -16 8 -35 15 -12 27 -26 27
-32 0 -6 7 -18 15 -27 14 -16 19 -16 68 1 28 10 62 18 75 19 12 0 22 4 22 9 0
4 11 6 25 3 20 -3 25 0 25 16 0 11 -11 29 -25 39 -14 10 -28 31 -31 48 -3 16
-10 33 -17 37 -6 4 -8 10 -5 14 4 3 -1 14 -12 23 -10 9 -32 50 -49 91 -17 41
-41 91 -53 110 -12 19 -31 57 -43 85 -26 63 -83 106 -152 112 -37 4 -54 1 -65
-11z"/>
<path d="M2770 1775 c0 -8 -7 -15 -15 -15 -19 0 -38 -47 -32 -77 2 -13 0 -23
-6 -23 -6 0 -6 -5 1 -12 22 -27 61 -111 56 -119 -3 -5 2 -12 11 -15 9 -4 14
-12 11 -20 -3 -7 2 -18 9 -24 8 -7 13 -16 10 -20 -2 -4 4 -15 15 -25 11 -10
20 -25 20 -34 0 -12 3 -12 12 -3 17 17 27 15 25 -7 -1 -11 -6 -17 -14 -14 -17
7 -5 -29 14 -40 7 -4 13 -17 13 -27 0 -11 7 -20 15 -20 18 0 20 -20 3 -20 -7
0 -4 -7 7 -16 11 -8 20 -20 20 -27 0 -7 13 -35 28 -64 15 -29 27 -58 27 -66 0
-27 108 -106 123 -91 3 3 11 2 18 -2 7 -4 24 -9 36 -10 l23 -3 -19 27 c-10 15
-28 50 -40 77 -12 28 -33 70 -46 95 -14 25 -37 70 -51 100 -15 30 -31 62 -35
70 -5 8 -13 25 -18 36 -5 12 -17 24 -26 27 -12 5 -14 11 -6 26 8 14 6 23 -9
36 -11 10 -20 23 -20 30 0 6 -8 20 -17 31 -18 19 -36 53 -47 87 -3 10 -10 16
-15 13 -5 -3 -7 2 -4 12 2 11 -3 26 -11 35 -9 8 -16 23 -16 32 0 22 -28 75
-40 75 -6 0 -10 -7 -10 -15z"/>
<path d="M2300 1650 c-17 -8 -92 -29 -128 -34 -35 -5 -36 -10 -11 -74 23 -60
23 -60 59 -55 19 3 48 12 63 20 39 20 69 9 61 -23 -4 -15 -2 -24 5 -24 6 0 19
-16 28 -35 9 -19 21 -35 26 -35 5 0 7 -7 3 -15 -3 -9 3 -23 14 -32 11 -10 20
-25 20 -35 0 -10 5 -18 11 -18 16 0 41 -29 34 -40 -3 -6 1 -7 9 -4 9 3 16 1
16 -5 0 -6 -4 -11 -10 -11 -5 0 -10 -5 -10 -12 0 -6 7 -4 18 5 22 20 39 22 23
3 -9 -10 -8 -15 3 -19 9 -3 12 -15 9 -31 -4 -21 -2 -26 16 -26 17 0 21 -6 21
-32 l0 -33 19 25 c27 35 31 67 11 85 -9 8 -20 12 -23 8 -4 -3 -7 -1 -7 6 0 8
7 10 21 6 20 -7 20 -6 5 24 -12 21 -21 28 -33 24 -10 -4 -14 -2 -10 5 4 6 2
12 -5 15 -7 2 -5 3 5 2 21 -4 23 11 2 19 -8 3 -12 12 -9 21 8 20 -13 19 -24
-1 -6 -11 -11 -13 -16 -5 -4 6 -3 11 2 11 15 0 23 29 13 48 -14 28 -29 66 -36
90 -4 12 -22 42 -40 66 -19 25 -39 63 -46 84 -11 39 -13 40 -53 40 -22 0 -48
-4 -56 -8z"/>
<path d="M1980 1550 c-8 -5 -32 -10 -52 -10 -48 0 -55 -14 -23 -44 15 -14 24
-29 21 -35 -4 -5 3 -15 14 -21 14 -8 20 -21 20 -46 0 -21 4 -33 10 -29 6 3 10
1 10 -5 0 -6 5 -8 10 -5 6 4 10 3 9 -2 -5 -27 2 -42 17 -36 13 5 13 8 2 15
-10 7 -10 11 0 15 6 2 12 11 12 19 0 8 5 14 10 14 13 0 13 -17 0 -25 -14 -9 1
-37 17 -31 9 4 11 2 7 -6 -5 -8 -2 -9 9 -5 10 3 17 2 17 -3 0 -6 9 -10 19 -10
11 0 22 -8 24 -17 4 -16 5 -16 6 0 1 11 -8 21 -20 24 -12 3 -18 11 -15 19 3 8
-1 26 -9 41 -8 16 -22 46 -30 68 -9 22 -23 53 -31 68 -8 16 -14 35 -14 43 0
16 -18 18 -40 4z"/>
<path d="M1685 1240 c-4 -14 -9 -34 -11 -45 -1 -11 -7 -32 -12 -46 -6 -14 -9
-56 -7 -93 2 -36 2 -66 0 -66 -5 0 -67 113 -69 126 -1 7 -10 21 -19 32 -9 10
-20 33 -23 51 -9 41 -25 48 -69 27 -38 -18 -38 -26 5 -106 29 -54 70 -146 70
-157 0 -5 13 -27 30 -49 16 -21 30 -47 30 -56 0 -9 14 -43 30 -75 17 -31 30
-62 30 -68 0 -6 9 -18 20 -28 11 -9 20 -29 20 -45 0 -16 3 -31 6 -34 7 -8 45
3 40 11 -2 3 7 7 21 7 28 2 44 15 26 21 -7 3 -13 13 -13 23 0 10 -4 21 -9 24
-5 3 -12 21 -15 40 -4 19 -13 39 -21 46 -8 7 -15 17 -15 22 0 5 14 -7 31 -27
17 -19 37 -35 45 -35 7 0 11 -6 8 -13 -7 -20 46 -97 62 -90 8 3 14 14 14 24 0
16 3 17 28 8 15 -6 34 -12 43 -13 9 0 30 -11 46 -23 105 -81 128 -90 77 -30
-16 19 -36 44 -44 57 -8 12 -20 28 -26 34 -34 37 -93 129 -113 176 -13 30 -32
65 -43 77 -20 21 -36 45 -57 88 -29 57 -60 100 -69 98 -6 -2 -14 14 -18 35 -3
20 -9 51 -13 67 l-8 30 -8 -25z"/>
<path d="M1288 1173 c-35 -14 -51 -33 -28 -33 6 0 10 -7 10 -15 0 -8 16 -45
35 -81 19 -37 32 -70 30 -74 -3 -5 1 -10 8 -13 6 -2 18 -25 25 -50 8 -26 24
-57 36 -70 12 -13 20 -29 18 -35 -2 -7 1 -12 7 -12 6 0 11 -13 11 -30 0 -18 9
-39 22 -52 12 -12 24 -31 26 -43 1 -11 7 -24 12 -29 4 -4 6 -14 3 -21 -2 -7 5
-16 16 -20 12 -3 19 -10 16 -15 -10 -16 11 -19 48 -9 34 9 52 29 26 29 -6 0
-9 7 -5 15 3 8 1 15 -4 15 -6 0 -10 8 -10 18 0 10 -7 27 -15 38 -8 10 -15 27
-15 37 0 9 -4 17 -10 17 -5 0 -10 8 -10 19 0 10 -8 29 -19 42 -15 20 -32 56
-36 79 0 3 -11 24 -23 47 -12 23 -31 67 -43 98 -11 31 -29 64 -39 73 -10 9
-21 34 -25 55 -8 41 -13 43 -67 20z"/>
<path d="M3369 1164 c-9 -8 -34 -17 -55 -19 -21 -1 -47 -6 -56 -9 -10 -3 -25
-8 -34 -11 -13 -4 -15 -13 -10 -37 3 -18 10 -34 15 -38 4 -3 11 -15 15 -28 6
-18 12 -21 34 -16 15 4 36 12 47 17 11 6 32 12 48 13 15 1 40 7 55 13 l28 12
-28 57 c-16 31 -32 58 -36 60 -4 1 -15 -5 -23 -14z"/>
<path d="M1150 1143 c-29 -10 -70 -57 -70 -79 0 -12 8 -39 17 -60 9 -22 18
-45 19 -53 2 -8 6 -17 11 -20 12 -9 42 -66 46 -87 5 -22 25 -66 67 -144 17
-30 30 -63 30 -73 0 -10 7 -20 15 -23 8 -4 15 -15 15 -25 0 -10 6 -19 14 -19
9 0 12 -7 9 -19 -7 -27 7 -31 55 -19 42 10 42 11 27 34 -8 13 -15 28 -15 34 0
5 -11 33 -25 62 -14 28 -25 57 -25 63 0 6 -13 24 -28 41 l-28 31 34 13 c32 11
34 14 27 48 -9 52 -20 59 -54 39 -28 -16 -29 -16 -45 8 -9 13 -16 29 -16 35 0
6 -11 33 -25 61 -27 52 -26 69 4 69 28 0 30 8 13 51 -15 39 -32 47 -72 32z"/>
<path d="M915 1080 c-3 -5 -19 -10 -36 -10 -16 0 -29 -2 -29 -5 0 -3 16 -36
36 -75 32 -63 43 -75 67 -71 11 2 8 -17 -3 -21 -7 -2 -7 -14 1 -36 8 -23 16
-31 27 -27 12 4 12 3 3 -9 -9 -11 -4 -28 24 -80 19 -36 35 -75 35 -86 0 -11 4
-20 9 -20 16 0 47 -93 33 -98 -16 -5 -15 -23 4 -60 16 -33 33 -39 64 -22 20
11 40 63 36 95 -3 26 -81 191 -94 199 -6 3 -13 24 -17 46 -4 22 -10 40 -14 40
-3 0 -14 18 -24 40 -16 37 -47 59 -33 24 4 -10 2 -14 -6 -11 -7 2 -12 10 -10
17 1 7 -3 20 -10 29 -10 13 -10 14 2 4 20 -19 32 -16 21 5 -5 9 -13 28 -19 42
-40 99 -52 115 -67 90z"/>
<path d="M710 1030 c-8 -5 -27 -10 -42 -10 l-28 0 51 -102 c28 -57 73 -148
100 -203 27 -55 49 -107 49 -116 0 -9 9 -26 20 -39 11 -13 20 -31 20 -40 0
-15 35 -54 69 -74 13 -9 111 -19 111 -12 0 2 -10 23 -22 45 -16 30 -28 41 -45
41 -13 0 -22 4 -18 9 3 5 -11 36 -30 69 -19 33 -35 67 -35 74 0 8 -5 19 -11
25 -6 6 -12 17 -13 24 -2 8 -10 30 -18 49 -8 19 -18 43 -21 53 -5 13 -13 17
-29 13 -13 -3 -18 -3 -11 0 10 5 10 39 -2 72 -2 6 -14 12 -26 12 -16 0 -19 3
-11 13 26 31 -26 117 -58 97z"/>
<path d="M435 962 c-20 -21 31 -88 62 -80 14 4 18 -1 19 -24 1 -15 8 -36 17
-46 8 -9 18 -29 22 -44 4 -15 10 -27 14 -26 18 2 22 -3 12 -16 -8 -10 -9 -16
-1 -21 5 -3 10 -13 10 -21 0 -8 9 -27 20 -42 11 -15 22 -38 25 -51 2 -13 11
-31 20 -41 8 -9 15 -25 15 -35 0 -10 7 -26 16 -36 22 -24 11 -53 -16 -44 -11
3 -20 2 -20 -3 0 -6 -16 -9 -36 -9 -32 2 -37 6 -50 42 -7 22 -20 45 -28 51
-10 7 -12 14 -6 20 6 6 -1 22 -19 43 -16 18 -27 41 -24 50 2 9 -5 25 -16 35
-12 11 -21 27 -21 36 0 9 -7 25 -15 36 -8 10 -15 25 -15 33 0 8 -11 29 -26 48
-24 32 -24 33 -5 33 14 0 21 7 21 20 0 11 -4 20 -10 20 -5 0 -10 9 -10 20 0
10 -10 24 -21 31 -18 9 -25 7 -50 -21 -32 -34 -38 -82 -16 -115 7 -11 20 -36
27 -55 8 -19 22 -46 32 -59 9 -12 20 -38 24 -57 3 -19 14 -39 24 -44 10 -5 17
-18 15 -27 -1 -10 6 -30 16 -45 11 -14 19 -29 19 -33 0 -13 34 -80 47 -93 7
-7 13 -17 13 -22 0 -11 57 -30 91 -30 20 0 32 -8 47 -34 11 -19 32 -42 47 -52
28 -18 102 -27 111 -13 3 5 16 9 30 9 13 0 24 5 24 10 0 6 -4 10 -10 10 -5 0
-10 6 -10 13 0 7 -6 21 -13 31 -10 14 -19 16 -52 8 -22 -5 -46 -7 -52 -5 -18
6 -16 23 3 23 8 0 13 4 10 9 -3 4 6 19 19 31 18 17 25 34 25 62 0 45 -46 138
-69 139 -12 0 -11 2 2 8 17 6 17 8 3 20 -9 7 -16 19 -16 25 0 6 -10 27 -22 46
-12 19 -21 43 -19 53 1 9 -4 17 -12 17 -8 0 -17 13 -20 30 -4 16 -16 39 -27
50 -11 11 -16 20 -11 20 6 0 4 10 -2 23 -18 34 -50 67 -59 61 -4 -3 -8 -1 -8
4 0 19 -80 38 -95 24z"/>
</g>
</svg>
